<?xml version="1.0" encoding="utf-8" standalone="no"?>
<!DOCTYPE svg PUBLIC "-//W3C//DTD SVG 1.1//EN"
  "http://www.w3.org/Graphics/SVG/1.1/DTD/svg11.dtd">
<svg xmlns:xlink="http://www.w3.org/1999/xlink" width="582.39125pt" height="314.912083pt" viewBox="0 0 582.39125 314.912083" xmlns="http://www.w3.org/2000/svg" version="1.1">
 <metadata>
  <rdf:RDF xmlns:dc="http://purl.org/dc/elements/1.1/" xmlns:cc="http://creativecommons.org/ns#" xmlns:rdf="http://www.w3.org/1999/02/22-rdf-syntax-ns#">
   <cc:Work>
    <dc:type rdf:resource="http://purl.org/dc/dcmitype/StillImage"/>
    <dc:date>2024-01-03T10:27:08.935302</dc:date>
    <dc:format>image/svg+xml</dc:format>
    <dc:creator>
     <cc:Agent>
      <dc:title>Matplotlib v3.8.0, https://matplotlib.org/</dc:title>
     </cc:Agent>
    </dc:creator>
   </cc:Work>
  </rdf:RDF>
 </metadata>
 <defs>
  <style type="text/css">*{stroke-linejoin: round; stroke-linecap: butt}</style>
 </defs>
 <g id="figure_1">
  <g id="patch_1">
   <path d="M 0 314.912083 
L 582.39125 314.912083 
L 582.39125 0 
L 0 0 
z
" style="fill: #ffffff"/>
  </g>
  <g id="axes_1">
   <g id="patch_2">
    <path d="M 64.64125 271.745417 
L 291.94125 271.745417 
L 291.94125 19.27875 
L 64.64125 19.27875 
z
" style="fill: #ffffff"/>
   </g>
   <g id="patch_3">
    <path d="M 69.649344 260.269659 
L 69.927297 260.269659 
L 69.927297 247.863435 
L 69.649344 247.863435 
z
" clip-path="url(#p42424307c9)" style="fill: #808080"/>
   </g>
   <g id="patch_4">
    <path d="M 69.649344 244.761879 
L 278.623637 244.761879 
L 278.623637 232.355654 
L 69.649344 232.355654 
z
" clip-path="url(#p42424307c9)" style="fill: #808080"/>
   </g>
   <g id="patch_5">
    <path d="M 69.649344 229.254098 
L 71.148967 229.254098 
L 71.148967 216.847874 
L 69.649344 216.847874 
z
" clip-path="url(#p42424307c9)" style="fill: #4472c4"/>
   </g>
   <g id="patch_6">
    <path d="M 69.649344 213.746318 
L 224.995119 213.746318 
L 224.995119 201.340093 
L 69.649344 201.340093 
z
" clip-path="url(#p42424307c9)" style="fill: #4472c4"/>
   </g>
   <g id="patch_7">
    <path d="M 69.649344 198.238537 
L 229.743908 198.238537 
L 229.743908 185.832313 
L 69.649344 185.832313 
z
" clip-path="url(#p42424307c9)" style="fill: #4472c4"/>
   </g>
   <g id="patch_8">
    <path d="M 69.649344 182.730757 
L 269.556015 182.730757 
L 269.556015 170.324532 
L 69.649344 170.324532 
z
" clip-path="url(#p42424307c9)" style="fill: #4472c4"/>
   </g>
   <g id="patch_9">
    <path d="M 69.649344 167.222976 
L 275.412038 167.222976 
L 275.412038 154.816752 
L 69.649344 154.816752 
z
" clip-path="url(#p42424307c9)" style="fill: #4472c4"/>
   </g>
   <g id="patch_10">
    <path d="M 69.649344 151.715196 
L 272.566097 151.715196 
L 272.566097 139.308971 
L 69.649344 139.308971 
z
" clip-path="url(#p42424307c9)" style="fill: #4472c4"/>
   </g>
   <g id="patch_11">
    <path d="M 69.649344 136.207415 
L 269.870571 136.207415 
L 269.870571 123.801191 
L 69.649344 123.801191 
z
" clip-path="url(#p42424307c9)" style="fill: #4472c4"/>
   </g>
   <g id="patch_12">
    <path d="M 69.649344 120.699635 
L 278.015812 120.699635 
L 278.015812 108.29341 
L 69.649344 108.29341 
z
" clip-path="url(#p42424307c9)" style="fill: #4472c4"/>
   </g>
   <g id="patch_13">
    <path d="M 69.649344 105.191854 
L 281.369157 105.191854 
L 281.369157 92.78563 
L 69.649344 92.78563 
z
" clip-path="url(#p42424307c9)" style="fill: #4472c4"/>
   </g>
   <g id="patch_14">
    <path d="M 69.649344 89.684074 
L 75.892218 89.684074 
L 75.892218 77.277849 
L 69.649344 77.277849 
z
" clip-path="url(#p42424307c9)" style="fill: #203864"/>
   </g>
   <g id="patch_15">
    <path d="M 69.649344 74.176293 
L 75.929882 74.176293 
L 75.929882 61.770069 
L 69.649344 61.770069 
z
" clip-path="url(#p42424307c9)" style="fill: #203864"/>
   </g>
   <g id="patch_16">
    <path d="M 69.649344 58.668512 
L 72.567723 58.668512 
L 72.567723 46.262288 
L 69.649344 46.262288 
z
" clip-path="url(#p42424307c9)" style="fill: #203864"/>
   </g>
   <g id="patch_17">
    <path d="M 69.649344 43.160732 
L 78.777412 43.160732 
L 78.777412 30.754508 
L 69.649344 30.754508 
z
" clip-path="url(#p42424307c9)" style="fill: #203864"/>
   </g>
   <g id="matplotlib.axis_1">
    <g id="xtick_1">
     <g id="line2d_1">
      <defs>
       <path id="m381d2845ac" d="M 0 0 
L 0 3.5 
" style="stroke: #000000; stroke-width: 0.8"/>
      </defs>
      <g>
       <use xlink:href="#m381d2845ac" x="69.649344" y="271.745417" style="stroke: #000000; stroke-width: 0.8"/>
      </g>
     </g>
     <g id="text_1">
      <!-- 0 -->
      <g transform="translate(67.104344 284.824167) scale(0.08 -0.08)">
       <defs>
        <path id="DejaVuSerif-30" d="M 2034 219 
Q 2513 219 2750 744 
Q 2988 1269 2988 2328 
Q 2988 3391 2750 3916 
Q 2513 4441 2034 4441 
Q 1556 4441 1318 3916 
Q 1081 3391 1081 2328 
Q 1081 1269 1318 744 
Q 1556 219 2034 219 
z
M 2034 -91 
Q 1275 -91 848 546 
Q 422 1184 422 2328 
Q 422 3475 848 4112 
Q 1275 4750 2034 4750 
Q 2797 4750 3222 4112 
Q 3647 3475 3647 2328 
Q 3647 1184 3222 546 
Q 2797 -91 2034 -91 
z
" transform="scale(0.015625)"/>
       </defs>
       <use xlink:href="#DejaVuSerif-30"/>
      </g>
     </g>
    </g>
    <g id="xtick_2">
     <g id="line2d_2">
      <g>
       <use xlink:href="#m381d2845ac" x="126.843657" y="271.745417" style="stroke: #000000; stroke-width: 0.8"/>
      </g>
     </g>
     <g id="text_2">
      <!-- 5 -->
      <g transform="translate(124.298657 284.824167) scale(0.08 -0.08)">
       <defs>
        <path id="DejaVuSerif-35" d="M 3219 4666 
L 3219 4153 
L 1081 4153 
L 1081 2816 
Q 1244 2928 1461 2984 
Q 1678 3041 1947 3041 
Q 2703 3041 3140 2622 
Q 3578 2203 3578 1478 
Q 3578 738 3136 323 
Q 2694 -91 1894 -91 
Q 1572 -91 1234 -12 
Q 897 66 544 225 
L 544 1131 
L 897 1131 
Q 925 688 1179 453 
Q 1434 219 1894 219 
Q 2388 219 2653 544 
Q 2919 869 2919 1478 
Q 2919 2084 2655 2407 
Q 2391 2731 1894 2731 
Q 1613 2731 1398 2631 
Q 1184 2531 1019 2322 
L 750 2322 
L 750 4666 
L 3219 4666 
z
" transform="scale(0.015625)"/>
       </defs>
       <use xlink:href="#DejaVuSerif-35"/>
      </g>
     </g>
    </g>
    <g id="xtick_3">
     <g id="line2d_3">
      <g>
       <use xlink:href="#m381d2845ac" x="184.03797" y="271.745417" style="stroke: #000000; stroke-width: 0.8"/>
      </g>
     </g>
     <g id="text_3">
      <!-- 10 -->
      <g transform="translate(178.94797 284.824167) scale(0.08 -0.08)">
       <defs>
        <path id="DejaVuSerif-31" d="M 909 0 
L 909 331 
L 1722 331 
L 1722 4213 
L 781 3603 
L 781 4013 
L 1919 4750 
L 2350 4750 
L 2350 331 
L 3163 331 
L 3163 0 
L 909 0 
z
" transform="scale(0.015625)"/>
       </defs>
       <use xlink:href="#DejaVuSerif-31"/>
       <use xlink:href="#DejaVuSerif-30" x="63.623047"/>
      </g>
     </g>
    </g>
    <g id="xtick_4">
     <g id="line2d_4">
      <g>
       <use xlink:href="#m381d2845ac" x="241.232283" y="271.745417" style="stroke: #000000; stroke-width: 0.8"/>
      </g>
     </g>
     <g id="text_4">
      <!-- 15 -->
      <g transform="translate(236.142283 284.824167) scale(0.08 -0.08)">
       <use xlink:href="#DejaVuSerif-31"/>
       <use xlink:href="#DejaVuSerif-35" x="63.623047"/>
      </g>
     </g>
    </g>
    <g id="text_5">
     <!-- Mean bias $\hat{\delta}$ -->
     <g transform="translate(245.94597 304.368333) scale(0.08 -0.08)">
      <defs>
       <path id="DejaVuSerif-4d" d="M 353 0 
L 353 331 
L 947 331 
L 947 4331 
L 319 4331 
L 319 4666 
L 1678 4666 
L 3316 1344 
L 4953 4666 
L 6228 4666 
L 6228 4331 
L 5606 4331 
L 5606 331 
L 6203 331 
L 6203 0 
L 4378 0 
L 4378 331 
L 4972 331 
L 4972 3938 
L 3372 684 
L 2931 684 
L 1331 3938 
L 1331 331 
L 1925 331 
L 1925 0 
L 353 0 
z
" transform="scale(0.015625)"/>
       <path id="DejaVuSerif-65" d="M 3469 1600 
L 991 1600 
L 991 1575 
Q 991 903 1244 561 
Q 1497 219 1991 219 
Q 2369 219 2611 417 
Q 2853 616 2950 1006 
L 3413 1006 
Q 3275 459 2904 184 
Q 2534 -91 1931 -91 
Q 1203 -91 761 389 
Q 319 869 319 1663 
Q 319 2450 753 2931 
Q 1188 3413 1894 3413 
Q 2647 3413 3050 2948 
Q 3453 2484 3469 1600 
z
M 2791 1931 
Q 2772 2513 2545 2808 
Q 2319 3103 1894 3103 
Q 1497 3103 1269 2806 
Q 1041 2509 991 1931 
L 2791 1931 
z
" transform="scale(0.015625)"/>
       <path id="DejaVuSerif-61" d="M 2547 1044 
L 2547 1747 
L 1806 1747 
Q 1378 1747 1168 1562 
Q 959 1378 959 997 
Q 959 650 1171 447 
Q 1384 244 1747 244 
Q 2106 244 2326 466 
Q 2547 688 2547 1044 
z
M 3122 2075 
L 3122 331 
L 3634 331 
L 3634 0 
L 2547 0 
L 2547 359 
Q 2356 128 2106 18 
Q 1856 -91 1522 -91 
Q 969 -91 644 203 
Q 319 497 319 997 
Q 319 1513 691 1797 
Q 1063 2081 1741 2081 
L 2547 2081 
L 2547 2309 
Q 2547 2688 2317 2895 
Q 2088 3103 1672 3103 
Q 1328 3103 1125 2947 
Q 922 2791 872 2484 
L 575 2484 
L 575 3156 
Q 875 3284 1158 3348 
Q 1441 3413 1709 3413 
Q 2400 3413 2761 3070 
Q 3122 2728 3122 2075 
z
" transform="scale(0.015625)"/>
       <path id="DejaVuSerif-6e" d="M 263 0 
L 263 331 
L 781 331 
L 781 2988 
L 231 2988 
L 231 3322 
L 1356 3322 
L 1356 2731 
Q 1516 3069 1770 3241 
Q 2025 3413 2363 3413 
Q 2913 3413 3172 3097 
Q 3431 2781 3431 2113 
L 3431 331 
L 3944 331 
L 3944 0 
L 2356 0 
L 2356 331 
L 2853 331 
L 2853 1931 
Q 2853 2541 2703 2767 
Q 2553 2994 2175 2994 
Q 1775 2994 1565 2701 
Q 1356 2409 1356 1850 
L 1356 331 
L 1856 331 
L 1856 0 
L 263 0 
z
" transform="scale(0.015625)"/>
       <path id="DejaVuSerif-20" transform="scale(0.015625)"/>
       <path id="DejaVuSerif-62" d="M 738 331 
L 738 4531 
L 184 4531 
L 184 4863 
L 1313 4863 
L 1313 2803 
Q 1481 3116 1742 3264 
Q 2003 3413 2388 3413 
Q 3000 3413 3387 2928 
Q 3775 2444 3775 1663 
Q 3775 881 3387 395 
Q 3000 -91 2388 -91 
Q 2003 -91 1742 57 
Q 1481 206 1313 519 
L 1313 0 
L 184 0 
L 184 331 
L 738 331 
z
M 1313 1497 
Q 1313 897 1542 583 
Q 1772 269 2209 269 
Q 2650 269 2876 622 
Q 3103 975 3103 1663 
Q 3103 2353 2876 2703 
Q 2650 3053 2209 3053 
Q 1772 3053 1542 2737 
Q 1313 2422 1313 1825 
L 1313 1497 
z
" transform="scale(0.015625)"/>
       <path id="DejaVuSerif-69" d="M 622 4353 
Q 622 4497 726 4603 
Q 831 4709 978 4709 
Q 1122 4709 1226 4603 
Q 1331 4497 1331 4353 
Q 1331 4206 1228 4103 
Q 1125 4000 978 4000 
Q 831 4000 726 4103 
Q 622 4206 622 4353 
z
M 1356 331 
L 1900 331 
L 1900 0 
L 231 0 
L 231 331 
L 781 331 
L 781 2988 
L 231 2988 
L 231 3322 
L 1356 3322 
L 1356 331 
z
" transform="scale(0.015625)"/>
       <path id="DejaVuSerif-73" d="M 359 184 
L 359 959 
L 691 959 
Q 703 588 923 403 
Q 1144 219 1575 219 
Q 1963 219 2166 364 
Q 2369 509 2369 788 
Q 2369 1006 2220 1140 
Q 2072 1275 1594 1428 
L 1178 1569 
Q 750 1706 558 1912 
Q 366 2119 366 2438 
Q 366 2894 700 3153 
Q 1034 3413 1625 3413 
Q 1888 3413 2178 3344 
Q 2469 3275 2778 3144 
L 2778 2419 
L 2447 2419 
Q 2434 2741 2221 2922 
Q 2009 3103 1644 3103 
Q 1281 3103 1095 2975 
Q 909 2847 909 2591 
Q 909 2381 1050 2254 
Q 1191 2128 1613 1997 
L 2069 1856 
Q 2541 1709 2748 1489 
Q 2956 1269 2956 922 
Q 2956 450 2595 179 
Q 2234 -91 1600 -91 
Q 1278 -91 972 -22 
Q 666 47 359 184 
z
" transform="scale(0.015625)"/>
       <path id="DejaVuSans-302" d="M -1831 5119 
L -1369 5119 
L -603 3944 
L -1038 3944 
L -1600 4709 
L -2163 3944 
L -2597 3944 
L -1831 5119 
z
M -1600 3584 
L -1600 3584 
z
" transform="scale(0.015625)"/>
       <path id="DejaVuSans-Oblique-3b4" d="M 3472 4053 
Q 3197 4272 2450 4272 
Q 1659 4272 1588 3906 
Q 1531 3619 2328 3469 
Q 2953 3353 3253 3003 
Q 3616 2581 3447 1716 
Q 3284 888 2763 400 
Q 2238 -91 1488 -91 
Q 741 -91 406 400 
Q 72 888 241 1747 
Q 363 2384 891 2900 
Q 1097 3100 1353 3213 
Q 913 3459 1000 3900 
Q 1166 4750 2544 4750 
Q 3234 4750 3566 4531 
L 3472 4053 
z
M 1753 3056 
Q 1525 2966 1306 2738 
Q 969 2384 847 1747 
Q 722 1113 919 756 
Q 1119 397 1584 397 
Q 2044 397 2381 759 
Q 2722 1122 2838 1716 
Q 2956 2338 2731 2638 
Q 2491 2959 2103 2994 
Q 1906 3013 1753 3056 
z
" transform="scale(0.015625)"/>
      </defs>
      <use xlink:href="#DejaVuSerif-4d" transform="translate(0 0.296875)"/>
      <use xlink:href="#DejaVuSerif-65" transform="translate(102.392578 0.296875)"/>
      <use xlink:href="#DejaVuSerif-61" transform="translate(161.572266 0.296875)"/>
      <use xlink:href="#DejaVuSerif-6e" transform="translate(221.191406 0.296875)"/>
      <use xlink:href="#DejaVuSerif-20" transform="translate(285.595703 0.296875)"/>
      <use xlink:href="#DejaVuSerif-62" transform="translate(317.382812 0.296875)"/>
      <use xlink:href="#DejaVuSerif-69" transform="translate(381.396484 0.296875)"/>
      <use xlink:href="#DejaVuSerif-61" transform="translate(413.378906 0.296875)"/>
      <use xlink:href="#DejaVuSerif-73" transform="translate(472.998047 0.296875)"/>
      <use xlink:href="#DejaVuSerif-20" transform="translate(524.316406 0.296875)"/>
      <use xlink:href="#DejaVuSans-302" transform="translate(618.977051 31.015625)"/>
      <use xlink:href="#DejaVuSans-Oblique-3b4" transform="translate(556.103516 0.296875)"/>
     </g>
    </g>
   </g>
   <g id="matplotlib.axis_2">
    <g id="ytick_1">
     <g id="line2d_5"/>
     <g id="text_6">
      <!-- Random -->
      <g transform="translate(27.49125 257.105922) scale(0.08 -0.08)">
       <defs>
        <path id="DejaVuSerif-52" d="M 3066 2316 
Q 3284 2256 3442 2114 
Q 3600 1972 3725 1716 
L 4403 331 
L 4972 331 
L 4972 0 
L 3872 0 
L 3144 1484 
Q 2934 1916 2759 2042 
Q 2584 2169 2278 2169 
L 1581 2169 
L 1581 331 
L 2241 331 
L 2241 0 
L 353 0 
L 353 331 
L 947 331 
L 947 4331 
L 353 4331 
L 353 4666 
L 2719 4666 
Q 3400 4666 3770 4341 
Q 4141 4016 4141 3419 
Q 4141 2938 3870 2661 
Q 3600 2384 3066 2316 
z
M 1581 2503 
L 2503 2503 
Q 2975 2503 3200 2726 
Q 3425 2950 3425 3419 
Q 3425 3888 3200 4109 
Q 2975 4331 2503 4331 
L 1581 4331 
L 1581 2503 
z
" transform="scale(0.015625)"/>
        <path id="DejaVuSerif-64" d="M 3359 331 
L 3909 331 
L 3909 0 
L 2784 0 
L 2784 519 
Q 2616 206 2355 57 
Q 2094 -91 1709 -91 
Q 1097 -91 708 395 
Q 319 881 319 1663 
Q 319 2444 706 2928 
Q 1094 3413 1709 3413 
Q 2094 3413 2355 3264 
Q 2616 3116 2784 2803 
L 2784 4531 
L 2241 4531 
L 2241 4863 
L 3359 4863 
L 3359 331 
z
M 2784 1497 
L 2784 1825 
Q 2784 2422 2554 2737 
Q 2325 3053 1888 3053 
Q 1444 3053 1217 2703 
Q 991 2353 991 1663 
Q 991 975 1217 622 
Q 1444 269 1888 269 
Q 2325 269 2554 583 
Q 2784 897 2784 1497 
z
" transform="scale(0.015625)"/>
        <path id="DejaVuSerif-6f" d="M 1925 219 
Q 2388 219 2623 584 
Q 2859 950 2859 1663 
Q 2859 2375 2623 2739 
Q 2388 3103 1925 3103 
Q 1463 3103 1227 2739 
Q 991 2375 991 1663 
Q 991 950 1228 584 
Q 1466 219 1925 219 
z
M 1925 -91 
Q 1200 -91 759 389 
Q 319 869 319 1663 
Q 319 2456 758 2934 
Q 1197 3413 1925 3413 
Q 2653 3413 3092 2934 
Q 3531 2456 3531 1663 
Q 3531 869 3092 389 
Q 2653 -91 1925 -91 
z
" transform="scale(0.015625)"/>
        <path id="DejaVuSerif-6d" d="M 3316 2675 
Q 3481 3041 3739 3227 
Q 3997 3413 4341 3413 
Q 4863 3413 5119 3089 
Q 5375 2766 5375 2113 
L 5375 331 
L 5894 331 
L 5894 0 
L 4300 0 
L 4300 331 
L 4800 331 
L 4800 2047 
Q 4800 2556 4650 2772 
Q 4500 2988 4153 2988 
Q 3769 2988 3567 2697 
Q 3366 2406 3366 1850 
L 3366 331 
L 3866 331 
L 3866 0 
L 2291 0 
L 2291 331 
L 2791 331 
L 2791 2069 
Q 2791 2566 2641 2777 
Q 2491 2988 2144 2988 
Q 1759 2988 1557 2697 
Q 1356 2406 1356 1850 
L 1356 331 
L 1856 331 
L 1856 0 
L 263 0 
L 263 331 
L 781 331 
L 781 2994 
L 231 2994 
L 231 3322 
L 1356 3322 
L 1356 2731 
Q 1516 3063 1762 3238 
Q 2009 3413 2322 3413 
Q 2709 3413 2968 3220 
Q 3228 3028 3316 2675 
z
" transform="scale(0.015625)"/>
       </defs>
       <use xlink:href="#DejaVuSerif-52"/>
       <use xlink:href="#DejaVuSerif-61" x="77.542969"/>
       <use xlink:href="#DejaVuSerif-6e" x="137.162109"/>
       <use xlink:href="#DejaVuSerif-64" x="201.566406"/>
       <use xlink:href="#DejaVuSerif-6f" x="265.580078"/>
       <use xlink:href="#DejaVuSerif-6d" x="325.785156"/>
      </g>
     </g>
    </g>
    <g id="ytick_2">
     <g id="line2d_6"/>
     <g id="text_7">
      <!-- MostPop -->
      <g transform="translate(25.81375 241.598141) scale(0.08 -0.08)">
       <defs>
        <path id="DejaVuSerif-74" d="M 691 2988 
L 184 2988 
L 184 3322 
L 691 3322 
L 691 4353 
L 1269 4353 
L 1269 3322 
L 2350 3322 
L 2350 2988 
L 1269 2988 
L 1269 878 
Q 1269 456 1350 337 
Q 1431 219 1650 219 
Q 1875 219 1978 351 
Q 2081 484 2088 781 
L 2522 781 
Q 2497 328 2275 118 
Q 2053 -91 1600 -91 
Q 1103 -91 897 129 
Q 691 350 691 878 
L 691 2988 
z
" transform="scale(0.015625)"/>
        <path id="DejaVuSerif-50" d="M 1581 2375 
L 2406 2375 
Q 2872 2375 3115 2626 
Q 3359 2878 3359 3353 
Q 3359 3831 3115 4081 
Q 2872 4331 2406 4331 
L 1581 4331 
L 1581 2375 
z
M 353 0 
L 353 331 
L 947 331 
L 947 4331 
L 353 4331 
L 353 4666 
L 2559 4666 
Q 3259 4666 3668 4311 
Q 4078 3956 4078 3353 
Q 4078 2753 3668 2397 
Q 3259 2041 2559 2041 
L 1581 2041 
L 1581 331 
L 2303 331 
L 2303 0 
L 353 0 
z
" transform="scale(0.015625)"/>
        <path id="DejaVuSerif-70" d="M 1313 1825 
L 1313 1497 
Q 1313 897 1542 583 
Q 1772 269 2209 269 
Q 2650 269 2876 622 
Q 3103 975 3103 1663 
Q 3103 2353 2876 2703 
Q 2650 3053 2209 3053 
Q 1772 3053 1542 2737 
Q 1313 2422 1313 1825 
z
M 738 2988 
L 184 2988 
L 184 3322 
L 1313 3322 
L 1313 2803 
Q 1481 3116 1742 3264 
Q 2003 3413 2388 3413 
Q 3000 3413 3387 2928 
Q 3775 2444 3775 1663 
Q 3775 881 3387 395 
Q 3000 -91 2388 -91 
Q 2003 -91 1742 57 
Q 1481 206 1313 519 
L 1313 -997 
L 1856 -997 
L 1856 -1331 
L 184 -1331 
L 184 -997 
L 738 -997 
L 738 2988 
z
" transform="scale(0.015625)"/>
       </defs>
       <use xlink:href="#DejaVuSerif-4d"/>
       <use xlink:href="#DejaVuSerif-6f" x="102.392578"/>
       <use xlink:href="#DejaVuSerif-73" x="162.597656"/>
       <use xlink:href="#DejaVuSerif-74" x="213.916016"/>
       <use xlink:href="#DejaVuSerif-50" x="254.101562"/>
       <use xlink:href="#DejaVuSerif-6f" x="317.386719"/>
       <use xlink:href="#DejaVuSerif-70" x="377.591797"/>
      </g>
     </g>
    </g>
    <g id="ytick_3">
     <g id="line2d_7"/>
     <g id="text_8">
      <!-- CPR -->
      <g transform="translate(43.61375 226.090361) scale(0.08 -0.08)">
       <defs>
        <path id="DejaVuSerif-43" d="M 4513 1234 
Q 4306 581 3820 245 
Q 3334 -91 2591 -91 
Q 2134 -91 1743 65 
Q 1353 222 1050 525 
Q 700 875 529 1320 
Q 359 1766 359 2328 
Q 359 3416 987 4083 
Q 1616 4750 2644 4750 
Q 3025 4750 3456 4650 
Q 3888 4550 4384 4347 
L 4384 3272 
L 4031 3272 
Q 3916 3859 3567 4137 
Q 3219 4416 2591 4416 
Q 1844 4416 1459 3886 
Q 1075 3356 1075 2328 
Q 1075 1303 1459 773 
Q 1844 244 2591 244 
Q 3113 244 3450 492 
Q 3788 741 3938 1234 
L 4513 1234 
z
" transform="scale(0.015625)"/>
       </defs>
       <use xlink:href="#DejaVuSerif-43"/>
       <use xlink:href="#DejaVuSerif-50" x="76.513672"/>
       <use xlink:href="#DejaVuSerif-52" x="143.798828"/>
      </g>
     </g>
    </g>
    <g id="ytick_4">
     <g id="line2d_8"/>
     <g id="text_9">
      <!-- BISER -->
      <g transform="translate(34.75875 210.58258) scale(0.08 -0.08)">
       <defs>
        <path id="DejaVuSerif-42" d="M 1581 331 
L 2516 331 
Q 3078 331 3337 575 
Q 3597 819 3597 1350 
Q 3597 1878 3339 2120 
Q 3081 2363 2516 2363 
L 1581 2363 
L 1581 331 
z
M 1581 2694 
L 2375 2694 
Q 2888 2694 3123 2891 
Q 3359 3088 3359 3513 
Q 3359 3941 3123 4136 
Q 2888 4331 2375 4331 
L 1581 4331 
L 1581 2694 
z
M 353 0 
L 353 331 
L 947 331 
L 947 4331 
L 353 4331 
L 353 4666 
L 2656 4666 
Q 3363 4666 3720 4377 
Q 4078 4088 4078 3513 
Q 4078 3097 3829 2850 
Q 3581 2603 3103 2547 
Q 3697 2472 4005 2167 
Q 4313 1863 4313 1350 
Q 4313 656 3875 328 
Q 3438 0 2509 0 
L 353 0 
z
" transform="scale(0.015625)"/>
        <path id="DejaVuSerif-49" d="M 1581 331 
L 2175 331 
L 2175 0 
L 353 0 
L 353 331 
L 947 331 
L 947 4331 
L 353 4331 
L 353 4666 
L 2175 4666 
L 2175 4331 
L 1581 4331 
L 1581 331 
z
" transform="scale(0.015625)"/>
        <path id="DejaVuSerif-53" d="M 594 225 
L 594 1288 
L 953 1284 
Q 969 753 1261 498 
Q 1553 244 2150 244 
Q 2706 244 2998 464 
Q 3291 684 3291 1106 
Q 3291 1444 3114 1625 
Q 2938 1806 2369 1978 
L 1753 2163 
Q 1084 2366 811 2669 
Q 538 2972 538 3500 
Q 538 4094 959 4422 
Q 1381 4750 2144 4750 
Q 2469 4750 2856 4679 
Q 3244 4609 3681 4475 
L 3681 3481 
L 3328 3481 
Q 3275 3975 2998 4195 
Q 2722 4416 2156 4416 
Q 1663 4416 1405 4214 
Q 1147 4013 1147 3628 
Q 1147 3294 1340 3103 
Q 1534 2913 2163 2725 
L 2741 2553 
Q 3375 2363 3645 2067 
Q 3916 1772 3916 1275 
Q 3916 597 3481 253 
Q 3047 -91 2188 -91 
Q 1803 -91 1404 -12 
Q 1006 66 594 225 
z
" transform="scale(0.015625)"/>
        <path id="DejaVuSerif-45" d="M 353 0 
L 353 331 
L 947 331 
L 947 4331 
L 353 4331 
L 353 4666 
L 4109 4666 
L 4109 3628 
L 3725 3628 
L 3725 4281 
L 1581 4281 
L 1581 2719 
L 3109 2719 
L 3109 3303 
L 3494 3303 
L 3494 1753 
L 3109 1753 
L 3109 2338 
L 1581 2338 
L 1581 384 
L 3775 384 
L 3775 1038 
L 4159 1038 
L 4159 0 
L 353 0 
z
" transform="scale(0.015625)"/>
       </defs>
       <use xlink:href="#DejaVuSerif-42"/>
       <use xlink:href="#DejaVuSerif-49" x="73.486328"/>
       <use xlink:href="#DejaVuSerif-53" x="112.988281"/>
       <use xlink:href="#DejaVuSerif-45" x="181.494141"/>
       <use xlink:href="#DejaVuSerif-52" x="254.492188"/>
      </g>
     </g>
    </g>
    <g id="ytick_5">
     <g id="line2d_9"/>
     <g id="text_10">
      <!-- MACR -->
      <g transform="translate(35.0275 195.0748) scale(0.08 -0.08)">
       <defs>
        <path id="DejaVuSerif-41" d="M 1281 1691 
L 2994 1691 
L 2138 3909 
L 1281 1691 
z
M -38 0 
L -38 331 
L 372 331 
L 2034 4666 
L 2559 4666 
L 4225 331 
L 4684 331 
L 4684 0 
L 2988 0 
L 2988 331 
L 3506 331 
L 3116 1356 
L 1153 1356 
L 763 331 
L 1275 331 
L 1275 0 
L -38 0 
z
" transform="scale(0.015625)"/>
       </defs>
       <use xlink:href="#DejaVuSerif-4d"/>
       <use xlink:href="#DejaVuSerif-41" x="102.392578"/>
       <use xlink:href="#DejaVuSerif-43" x="174.609375"/>
       <use xlink:href="#DejaVuSerif-52" x="251.123047"/>
      </g>
     </g>
    </g>
    <g id="ytick_6">
     <g id="line2d_10"/>
     <g id="text_11">
      <!-- PD -->
      <g transform="translate(49.345 179.567019) scale(0.08 -0.08)">
       <defs>
        <path id="DejaVuSerif-44" d="M 1581 331 
L 2163 331 
Q 3072 331 3558 850 
Q 4044 1369 4044 2338 
Q 4044 3306 3559 3818 
Q 3075 4331 2163 4331 
L 1581 4331 
L 1581 331 
z
M 353 0 
L 353 331 
L 947 331 
L 947 4331 
L 353 4331 
L 353 4666 
L 2209 4666 
Q 3416 4666 4089 4050 
Q 4763 3434 4763 2338 
Q 4763 1238 4088 619 
Q 3413 0 2209 0 
L 353 0 
z
" transform="scale(0.015625)"/>
       </defs>
       <use xlink:href="#DejaVuSerif-50"/>
       <use xlink:href="#DejaVuSerif-44" x="67.285156"/>
      </g>
     </g>
    </g>
    <g id="ytick_7">
     <g id="line2d_11"/>
     <g id="text_12">
      <!-- RelMF -->
      <g transform="translate(34.08125 164.059239) scale(0.08 -0.08)">
       <defs>
        <path id="DejaVuSerif-6c" d="M 1313 331 
L 1856 331 
L 1856 0 
L 184 0 
L 184 331 
L 738 331 
L 738 4531 
L 184 4531 
L 184 4863 
L 1313 4863 
L 1313 331 
z
" transform="scale(0.015625)"/>
        <path id="DejaVuSerif-46" d="M 353 0 
L 353 331 
L 947 331 
L 947 4331 
L 353 4331 
L 353 4666 
L 4172 4666 
L 4172 3628 
L 3788 3628 
L 3788 4281 
L 1581 4281 
L 1581 2719 
L 3175 2719 
L 3175 3303 
L 3559 3303 
L 3559 1753 
L 3175 1753 
L 3175 2338 
L 1581 2338 
L 1581 331 
L 2328 331 
L 2328 0 
L 353 0 
z
" transform="scale(0.015625)"/>
       </defs>
       <use xlink:href="#DejaVuSerif-52"/>
       <use xlink:href="#DejaVuSerif-65" x="75.292969"/>
       <use xlink:href="#DejaVuSerif-6c" x="134.472656"/>
       <use xlink:href="#DejaVuSerif-4d" x="166.455078"/>
       <use xlink:href="#DejaVuSerif-46" x="268.847656"/>
      </g>
     </g>
    </g>
    <g id="ytick_8">
     <g id="line2d_12"/>
     <g id="text_13">
      <!-- UBPR -->
      <g transform="translate(37.11375 148.551458) scale(0.08 -0.08)">
       <defs>
        <path id="DejaVuSerif-55" d="M 897 4331 
L 300 4331 
L 300 4666 
L 2125 4666 
L 2125 4331 
L 1528 4331 
L 1528 1919 
Q 1528 1025 1820 672 
Q 2113 319 2828 319 
Q 3544 319 3836 672 
Q 4128 1025 4128 1919 
L 4128 4331 
L 3531 4331 
L 3531 4666 
L 5106 4666 
L 5106 4331 
L 4513 4331 
L 4513 1856 
Q 4513 791 4103 350 
Q 3694 -91 2713 -91 
Q 1731 -91 1314 353 
Q 897 797 897 1856 
L 897 4331 
z
" transform="scale(0.015625)"/>
       </defs>
       <use xlink:href="#DejaVuSerif-55"/>
       <use xlink:href="#DejaVuSerif-42" x="84.277344"/>
       <use xlink:href="#DejaVuSerif-50" x="157.763672"/>
       <use xlink:href="#DejaVuSerif-52" x="225.048828"/>
      </g>
     </g>
    </g>
    <g id="ytick_9">
     <g id="line2d_13"/>
     <g id="text_14">
      <!-- BPR -->
      <g transform="translate(43.85625 133.043678) scale(0.08 -0.08)">
       <use xlink:href="#DejaVuSerif-42"/>
       <use xlink:href="#DejaVuSerif-50" x="73.486328"/>
       <use xlink:href="#DejaVuSerif-52" x="140.771484"/>
      </g>
     </g>
    </g>
    <g id="ytick_10">
     <g id="line2d_14"/>
     <g id="text_15">
      <!-- BCE -->
      <g transform="translate(43.15125 117.535897) scale(0.08 -0.08)">
       <use xlink:href="#DejaVuSerif-42"/>
       <use xlink:href="#DejaVuSerif-43" x="75.361328"/>
       <use xlink:href="#DejaVuSerif-45" x="151.875"/>
      </g>
     </g>
    </g>
    <g id="ytick_11">
     <g id="line2d_15"/>
     <g id="text_16">
      <!-- KNN -->
      <g transform="translate(41.165 102.028117) scale(0.08 -0.08)">
       <defs>
        <path id="DejaVuSerif-4b" d="M 353 0 
L 353 331 
L 947 331 
L 947 4331 
L 353 4331 
L 353 4666 
L 2175 4666 
L 2175 4331 
L 1581 4331 
L 1581 2566 
L 3591 4331 
L 3084 4331 
L 3084 4666 
L 4634 4666 
L 4634 4331 
L 4109 4331 
L 2106 2572 
L 4347 331 
L 4878 331 
L 4878 0 
L 3794 0 
L 1581 2216 
L 1581 331 
L 2175 331 
L 2175 0 
L 353 0 
z
" transform="scale(0.015625)"/>
        <path id="DejaVuSerif-4e" d="M 313 0 
L 313 331 
L 941 331 
L 941 4331 
L 313 4331 
L 313 4666 
L 1509 4666 
L 4306 984 
L 4306 4331 
L 3681 4331 
L 3681 4666 
L 5319 4666 
L 5319 4331 
L 4691 4331 
L 4691 -91 
L 4313 -91 
L 1325 3841 
L 1325 331 
L 1953 331 
L 1953 0 
L 313 0 
z
" transform="scale(0.015625)"/>
       </defs>
       <use xlink:href="#DejaVuSerif-4b"/>
       <use xlink:href="#DejaVuSerif-4e" x="74.707031"/>
       <use xlink:href="#DejaVuSerif-4e" x="162.207031"/>
      </g>
     </g>
    </g>
    <g id="ytick_12">
     <g id="line2d_16"/>
     <g id="text_17">
      <!-- BL -->
      <g transform="translate(48.755 86.520336) scale(0.08 -0.08)">
       <defs>
        <path id="DejaVuSerif-Bold-42" d="M 300 0 
L 300 378 
L 897 378 
L 897 4288 
L 300 4288 
L 300 4666 
L 3066 4666 
Q 3919 4666 4347 4378 
Q 4775 4091 4775 3513 
Q 4775 3097 4479 2853 
Q 4184 2609 3603 2547 
Q 4306 2481 4681 2172 
Q 5056 1863 5056 1350 
Q 5056 656 4532 328 
Q 4009 0 2894 0 
L 300 0 
z
M 2100 2719 
L 2509 2719 
Q 3047 2719 3306 2914 
Q 3566 3109 3566 3513 
Q 3566 3919 3314 4103 
Q 3063 4288 2509 4288 
L 2100 4288 
L 2100 2719 
z
M 2100 378 
L 2547 378 
Q 3144 378 3431 615 
Q 3719 853 3719 1350 
Q 3719 1850 3428 2097 
Q 3138 2344 2547 2344 
L 2100 2344 
L 2100 378 
z
" transform="scale(0.015625)"/>
        <path id="DejaVuSerif-Bold-4c" d="M 300 0 
L 300 378 
L 897 378 
L 897 4288 
L 300 4288 
L 300 4666 
L 2700 4666 
L 2700 4288 
L 2100 4288 
L 2100 428 
L 3938 428 
L 3938 1166 
L 4359 1166 
L 4359 0 
L 300 0 
z
" transform="scale(0.015625)"/>
       </defs>
       <use xlink:href="#DejaVuSerif-Bold-42"/>
       <use xlink:href="#DejaVuSerif-Bold-4c" x="84.521484"/>
      </g>
     </g>
    </g>
    <g id="ytick_13">
     <g id="line2d_17"/>
     <g id="text_18">
      <!-- ENL -->
      <g transform="translate(42.10625 71.012556) scale(0.08 -0.08)">
       <defs>
        <path id="DejaVuSerif-Bold-45" d="M 300 0 
L 300 378 
L 897 378 
L 897 4288 
L 300 4288 
L 300 4666 
L 4494 4666 
L 4494 3566 
L 4063 3566 
L 4063 4238 
L 2100 4238 
L 2100 2741 
L 3322 2741 
L 3322 3334 
L 3750 3334 
L 3750 1722 
L 3322 1722 
L 3322 2316 
L 2100 2316 
L 2100 428 
L 4122 428 
L 4122 1100 
L 4550 1100 
L 4550 0 
L 300 0 
z
" transform="scale(0.015625)"/>
        <path id="DejaVuSerif-Bold-4e" d="M 281 0 
L 281 378 
L 878 378 
L 878 4288 
L 281 4288 
L 281 4666 
L 1741 4666 
L 4556 1363 
L 4556 4288 
L 3963 4288 
L 3963 4666 
L 5594 4666 
L 5594 4288 
L 4997 4288 
L 4997 0 
L 4178 0 
L 1319 3372 
L 1319 378 
L 1913 378 
L 1913 0 
L 281 0 
z
" transform="scale(0.015625)"/>
       </defs>
       <use xlink:href="#DejaVuSerif-Bold-45"/>
       <use xlink:href="#DejaVuSerif-Bold-4e" x="76.220703"/>
       <use xlink:href="#DejaVuSerif-Bold-4c" x="167.626953"/>
      </g>
     </g>
    </g>
    <g id="ytick_14">
     <g id="line2d_18"/>
     <g id="text_19">
      <!-- GEV -->
      <g transform="translate(42.00375 55.504775) scale(0.08 -0.08)">
       <defs>
        <path id="DejaVuSerif-Bold-47" d="M 4403 3200 
Q 4263 3819 3934 4095 
Q 3606 4372 3009 4372 
Q 2284 4372 1945 3880 
Q 1606 3388 1606 2328 
Q 1606 1278 1931 783 
Q 2256 288 2944 288 
Q 3206 288 3431 347 
Q 3656 406 3841 525 
L 3841 1806 
L 3278 1806 
L 3278 2181 
L 4959 2181 
L 4959 391 
Q 4434 147 3911 28 
Q 3388 -91 2841 -91 
Q 1641 -91 955 556 
Q 269 1203 269 2328 
Q 269 3456 955 4103 
Q 1641 4750 2841 4750 
Q 3341 4750 3825 4650 
Q 4309 4550 4800 4347 
L 4800 3200 
L 4403 3200 
z
" transform="scale(0.015625)"/>
        <path id="DejaVuSerif-Bold-56" d="M 5056 4666 
L 5056 4288 
L 4666 4288 
L 2906 0 
L 2163 0 
L 403 4288 
L -38 4288 
L -38 4666 
L 2150 4666 
L 2150 4288 
L 1697 4288 
L 2956 1197 
L 4225 4288 
L 3669 4288 
L 3669 4666 
L 5056 4666 
z
" transform="scale(0.015625)"/>
       </defs>
       <use xlink:href="#DejaVuSerif-Bold-47"/>
       <use xlink:href="#DejaVuSerif-Bold-45" x="85.400391"/>
       <use xlink:href="#DejaVuSerif-Bold-56" x="161.621094"/>
      </g>
     </g>
    </g>
    <g id="ytick_15">
     <g id="line2d_19"/>
     <g id="text_20">
      <!-- MNL -->
      <g transform="translate(39.34875 39.996995) scale(0.08 -0.08)">
       <defs>
        <path id="DejaVuSerif-Bold-4d" d="M 269 0 
L 269 378 
L 863 378 
L 863 4288 
L 269 4288 
L 269 4666 
L 2194 4666 
L 3525 1672 
L 4863 4666 
L 6784 4666 
L 6784 4288 
L 6188 4288 
L 6188 378 
L 6784 378 
L 6784 0 
L 4384 0 
L 4384 378 
L 4978 378 
L 4978 3938 
L 3531 684 
L 2741 684 
L 1300 3938 
L 1300 378 
L 1894 378 
L 1894 0 
L 269 0 
z
" transform="scale(0.015625)"/>
       </defs>
       <use xlink:href="#DejaVuSerif-Bold-4d"/>
       <use xlink:href="#DejaVuSerif-Bold-4e" x="110.693359"/>
       <use xlink:href="#DejaVuSerif-Bold-4c" x="202.099609"/>
      </g>
     </g>
    </g>
   </g>
   <g id="patch_18">
    <path d="M 64.64125 271.745417 
L 291.94125 271.745417 
" style="fill: none; stroke: #000000; stroke-width: 0.8; stroke-linejoin: miter; stroke-linecap: square"/>
   </g>
   <g id="text_21">
    <!-- Exposure bias through over-exposure -->
    <g transform="translate(94.585625 13.27875) scale(0.08 -0.08)">
     <defs>
      <path id="DejaVuSerif-Bold-78" d="M 2247 2119 
L 2834 2944 
L 2425 2944 
L 2425 3322 
L 3719 3322 
L 3719 2944 
L 3278 2944 
L 2431 1759 
L 3419 378 
L 3859 378 
L 3859 0 
L 1747 0 
L 1747 378 
L 2175 378 
L 1550 1253 
L 922 378 
L 1369 378 
L 1369 0 
L 0 0 
L 0 378 
L 475 378 
L 1356 1619 
L 403 2944 
L 31 2944 
L 31 3322 
L 2059 3322 
L 2059 2944 
L 1656 2944 
L 2247 2119 
z
" transform="scale(0.015625)"/>
      <path id="DejaVuSerif-Bold-70" d="M 1728 1825 
L 1728 1497 
Q 1728 916 1876 656 
Q 2025 397 2356 397 
Q 2697 397 2836 672 
Q 2975 947 2975 1663 
Q 2975 2378 2836 2651 
Q 2697 2925 2356 2925 
Q 2025 2925 1876 2665 
Q 1728 2406 1728 1825 
z
M 622 2944 
L 147 2944 
L 147 3322 
L 1728 3322 
L 1728 2900 
Q 1869 3159 2106 3286 
Q 2344 3413 2694 3413 
Q 3403 3413 3811 2945 
Q 4219 2478 4219 1663 
Q 4219 847 3811 378 
Q 3403 -91 2694 -91 
Q 2344 -91 2106 36 
Q 1869 163 1728 422 
L 1728 -953 
L 2241 -953 
L 2241 -1331 
L 147 -1331 
L 147 -953 
L 622 -953 
L 622 2944 
z
" transform="scale(0.015625)"/>
      <path id="DejaVuSerif-Bold-6f" d="M 2138 263 
Q 2488 263 2630 563 
Q 2772 863 2772 1663 
Q 2772 2463 2631 2761 
Q 2491 3059 2138 3059 
Q 1784 3059 1640 2757 
Q 1497 2456 1497 1663 
Q 1497 869 1640 566 
Q 1784 263 2138 263 
z
M 2138 -91 
Q 1259 -91 761 376 
Q 263 844 263 1663 
Q 263 2484 761 2948 
Q 1259 3413 2138 3413 
Q 3019 3413 3516 2948 
Q 4013 2484 4013 1663 
Q 4013 844 3514 376 
Q 3016 -91 2138 -91 
z
" transform="scale(0.015625)"/>
      <path id="DejaVuSerif-Bold-73" d="M 300 97 
L 300 1025 
L 653 1025 
Q 697 653 931 458 
Q 1166 263 1569 263 
Q 1906 263 2086 380 
Q 2266 497 2266 716 
Q 2266 916 2152 1025 
Q 2038 1134 1709 1216 
L 1253 1331 
Q 738 1459 506 1698 
Q 275 1938 275 2344 
Q 275 2884 650 3148 
Q 1025 3413 1806 3413 
Q 2100 3413 2433 3364 
Q 2766 3316 3169 3213 
L 3169 2375 
L 2816 2375 
Q 2788 2716 2573 2887 
Q 2359 3059 1959 3059 
Q 1622 3059 1448 2951 
Q 1275 2844 1275 2638 
Q 1275 2469 1375 2372 
Q 1475 2275 1734 2209 
L 2188 2094 
Q 2841 1928 3091 1684 
Q 3341 1441 3341 1006 
Q 3341 444 2939 176 
Q 2538 -91 1691 -91 
Q 1381 -91 1034 -44 
Q 688 3 300 97 
z
" transform="scale(0.015625)"/>
      <path id="DejaVuSerif-Bold-75" d="M 3963 3322 
L 3963 378 
L 4434 378 
L 4434 0 
L 2853 0 
L 2853 469 
Q 2656 172 2400 40 
Q 2144 -91 1753 -91 
Q 1194 -91 908 239 
Q 622 569 622 1209 
L 622 2944 
L 147 2944 
L 147 3322 
L 1728 3322 
L 1728 1381 
Q 1728 763 1831 595 
Q 1934 428 2209 428 
Q 2544 428 2698 675 
Q 2853 922 2853 1459 
L 2853 2944 
L 2450 2944 
L 2450 3322 
L 3963 3322 
z
" transform="scale(0.015625)"/>
      <path id="DejaVuSerif-Bold-72" d="M 3438 3359 
L 3438 2369 
L 3084 2369 
Q 3066 2634 2941 2764 
Q 2816 2894 2578 2894 
Q 2216 2894 2006 2575 
Q 1797 2256 1797 1691 
L 1797 378 
L 2400 378 
L 2400 0 
L 219 0 
L 219 378 
L 691 378 
L 691 2944 
L 184 2944 
L 184 3322 
L 1797 3322 
L 1797 2731 
Q 1959 3078 2226 3245 
Q 2494 3413 2881 3413 
Q 2978 3413 3117 3398 
Q 3256 3384 3438 3359 
z
" transform="scale(0.015625)"/>
      <path id="DejaVuSerif-Bold-65" d="M 2566 1875 
Q 2566 2531 2444 2795 
Q 2322 3059 2028 3059 
Q 1744 3059 1620 2800 
Q 1497 2541 1497 1931 
L 1497 1875 
L 2566 1875 
z
M 3781 1503 
L 1497 1503 
L 1497 1478 
Q 1497 834 1690 548 
Q 1884 263 2316 263 
Q 2675 263 2897 453 
Q 3119 644 3181 1006 
L 3700 1006 
Q 3566 441 3166 175 
Q 2766 -91 2047 -91 
Q 1184 -91 723 364 
Q 263 819 263 1663 
Q 263 2488 734 2950 
Q 1206 3413 2047 3413 
Q 2872 3413 3312 2927 
Q 3753 2441 3781 1503 
z
" transform="scale(0.015625)"/>
      <path id="DejaVuSerif-Bold-20" transform="scale(0.015625)"/>
      <path id="DejaVuSerif-Bold-62" d="M 622 378 
L 622 4488 
L 147 4488 
L 147 4863 
L 1728 4863 
L 1728 2900 
Q 1869 3159 2106 3286 
Q 2344 3413 2694 3413 
Q 3403 3413 3811 2945 
Q 4219 2478 4219 1663 
Q 4219 847 3811 378 
Q 3403 -91 2694 -91 
Q 2344 -91 2106 36 
Q 1869 163 1728 422 
L 1728 0 
L 147 0 
L 147 378 
L 622 378 
z
M 1728 1497 
Q 1728 916 1876 656 
Q 2025 397 2356 397 
Q 2697 397 2836 672 
Q 2975 947 2975 1663 
Q 2975 2378 2836 2651 
Q 2697 2925 2356 2925 
Q 2025 2925 1876 2665 
Q 1728 2406 1728 1825 
L 1728 1497 
z
" transform="scale(0.015625)"/>
      <path id="DejaVuSerif-Bold-69" d="M 588 4263 
Q 588 4516 763 4689 
Q 938 4863 1191 4863 
Q 1438 4863 1611 4689 
Q 1784 4516 1784 4263 
Q 1784 4016 1611 3842 
Q 1438 3669 1191 3669 
Q 938 3669 763 3841 
Q 588 4013 588 4263 
z
M 1797 378 
L 2272 378 
L 2272 0 
L 219 0 
L 219 378 
L 691 378 
L 691 2944 
L 219 2944 
L 219 3322 
L 1797 3322 
L 1797 378 
z
" transform="scale(0.015625)"/>
      <path id="DejaVuSerif-Bold-61" d="M 3525 2041 
L 3525 378 
L 4000 378 
L 4000 0 
L 2419 0 
L 2419 422 
Q 2200 159 1931 34 
Q 1663 -91 1319 -91 
Q 809 -91 536 182 
Q 263 456 263 966 
Q 263 1525 655 1803 
Q 1047 2081 1838 2081 
L 2419 2081 
L 2419 2278 
Q 2419 2681 2228 2873 
Q 2038 3066 1638 3066 
Q 1306 3066 1126 2930 
Q 947 2794 872 2484 
L 519 2484 
L 519 3200 
Q 816 3306 1134 3359 
Q 1453 3413 1806 3413 
Q 2697 3413 3111 3081 
Q 3525 2750 3525 2041 
z
M 2419 1044 
L 2419 1709 
L 2003 1709 
Q 1694 1709 1528 1540 
Q 1363 1372 1363 1056 
Q 1363 741 1483 584 
Q 1603 428 1850 428 
Q 2106 428 2262 597 
Q 2419 766 2419 1044 
z
" transform="scale(0.015625)"/>
      <path id="DejaVuSerif-Bold-74" d="M 634 2944 
L 153 2944 
L 153 3322 
L 634 3322 
L 634 4353 
L 1741 4353 
L 1741 3322 
L 2663 3322 
L 2663 2944 
L 1741 2944 
L 1741 909 
Q 1741 475 1809 369 
Q 1878 263 2059 263 
Q 2259 263 2356 397 
Q 2453 531 2459 813 
L 2925 813 
Q 2897 313 2651 111 
Q 2406 -91 1806 -91 
Q 1122 -91 878 123 
Q 634 338 634 909 
L 634 2944 
z
" transform="scale(0.015625)"/>
      <path id="DejaVuSerif-Bold-68" d="M 219 0 
L 219 378 
L 691 378 
L 691 4488 
L 197 4488 
L 197 4863 
L 1797 4863 
L 1797 2853 
Q 1997 3150 2253 3281 
Q 2509 3413 2900 3413 
Q 3459 3413 3745 3083 
Q 4031 2753 4031 2113 
L 4031 378 
L 4506 378 
L 4506 0 
L 2522 0 
L 2522 378 
L 2925 378 
L 2925 2144 
Q 2925 2566 2817 2730 
Q 2709 2894 2444 2894 
Q 2109 2894 1953 2648 
Q 1797 2403 1797 1869 
L 1797 378 
L 2203 378 
L 2203 0 
L 219 0 
z
" transform="scale(0.015625)"/>
      <path id="DejaVuSerif-Bold-67" d="M 3853 2944 
L 3853 44 
Q 3853 -656 3354 -1039 
Q 2856 -1422 1947 -1422 
Q 1616 -1422 1275 -1370 
Q 934 -1319 575 -1216 
L 575 -422 
L 928 -422 
Q 975 -750 1192 -909 
Q 1409 -1069 1813 -1069 
Q 2325 -1069 2536 -823 
Q 2747 -578 2747 44 
L 2747 422 
Q 2606 163 2367 36 
Q 2128 -91 1778 -91 
Q 1072 -91 667 378 
Q 263 847 263 1663 
Q 263 2481 667 2947 
Q 1072 3413 1778 3413 
Q 2128 3413 2367 3286 
Q 2606 3159 2747 2900 
L 2747 3322 
L 4325 3322 
L 4325 2944 
L 3853 2944 
z
M 2747 1825 
Q 2747 2406 2597 2665 
Q 2447 2925 2119 2925 
Q 1775 2925 1636 2651 
Q 1497 2378 1497 1663 
Q 1497 947 1637 672 
Q 1778 397 2119 397 
Q 2447 397 2597 656 
Q 2747 916 2747 1497 
L 2747 1825 
z
" transform="scale(0.015625)"/>
      <path id="DejaVuSerif-Bold-76" d="M 1428 0 
L 250 2944 
L -116 2944 
L -116 3322 
L 1791 3322 
L 1791 2944 
L 1388 2944 
L 2228 844 
L 3066 2944 
L 2631 2944 
L 2631 3322 
L 3878 3322 
L 3878 2944 
L 3494 2944 
L 2316 0 
L 1428 0 
z
" transform="scale(0.015625)"/>
      <path id="DejaVuSerif-Bold-2d" d="M 347 2138 
L 2309 2138 
L 2309 1294 
L 347 1294 
L 347 2138 
z
" transform="scale(0.015625)"/>
     </defs>
     <use xlink:href="#DejaVuSerif-Bold-45"/>
     <use xlink:href="#DejaVuSerif-Bold-78" x="76.220703"/>
     <use xlink:href="#DejaVuSerif-Bold-70" x="135.839844"/>
     <use xlink:href="#DejaVuSerif-Bold-6f" x="205.761719"/>
     <use xlink:href="#DejaVuSerif-Bold-73" x="272.460938"/>
     <use xlink:href="#DejaVuSerif-Bold-75" x="328.759766"/>
     <use xlink:href="#DejaVuSerif-Bold-72" x="401.464844"/>
     <use xlink:href="#DejaVuSerif-Bold-65" x="454.150391"/>
     <use xlink:href="#DejaVuSerif-Bold-20" x="517.773438"/>
     <use xlink:href="#DejaVuSerif-Bold-62" x="552.587891"/>
     <use xlink:href="#DejaVuSerif-Bold-69" x="622.509766"/>
     <use xlink:href="#DejaVuSerif-Bold-61" x="660.498047"/>
     <use xlink:href="#DejaVuSerif-Bold-73" x="725.292969"/>
     <use xlink:href="#DejaVuSerif-Bold-20" x="781.591797"/>
     <use xlink:href="#DejaVuSerif-Bold-74" x="816.40625"/>
     <use xlink:href="#DejaVuSerif-Bold-68" x="862.597656"/>
     <use xlink:href="#DejaVuSerif-Bold-72" x="935.302734"/>
     <use xlink:href="#DejaVuSerif-Bold-6f" x="987.988281"/>
     <use xlink:href="#DejaVuSerif-Bold-75" x="1054.6875"/>
     <use xlink:href="#DejaVuSerif-Bold-67" x="1127.392578"/>
     <use xlink:href="#DejaVuSerif-Bold-68" x="1197.314453"/>
     <use xlink:href="#DejaVuSerif-Bold-20" x="1270.019531"/>
     <use xlink:href="#DejaVuSerif-Bold-6f" x="1304.833984"/>
     <use xlink:href="#DejaVuSerif-Bold-76" x="1371.533203"/>
     <use xlink:href="#DejaVuSerif-Bold-65" x="1429.638672"/>
     <use xlink:href="#DejaVuSerif-Bold-72" x="1493.261719"/>
     <use xlink:href="#DejaVuSerif-Bold-2d" x="1545.947266"/>
     <use xlink:href="#DejaVuSerif-Bold-65" x="1587.451172"/>
     <use xlink:href="#DejaVuSerif-Bold-78" x="1651.074219"/>
     <use xlink:href="#DejaVuSerif-Bold-70" x="1710.693359"/>
     <use xlink:href="#DejaVuSerif-Bold-6f" x="1780.615234"/>
     <use xlink:href="#DejaVuSerif-Bold-73" x="1847.314453"/>
     <use xlink:href="#DejaVuSerif-Bold-75" x="1903.613281"/>
     <use xlink:href="#DejaVuSerif-Bold-72" x="1976.318359"/>
     <use xlink:href="#DejaVuSerif-Bold-65" x="2029.003906"/>
    </g>
   </g>
  </g>
  <g id="axes_2">
   <g id="patch_19">
    <path d="M 347.89125 271.745417 
L 575.19125 271.745417 
L 575.19125 19.27875 
L 347.89125 19.27875 
z
" style="fill: #ffffff"/>
   </g>
   <g id="patch_20">
    <path d="M 352.899344 260.269659 
L 353.2326 260.269659 
L 353.2326 247.863435 
L 352.899344 247.863435 
z
" clip-path="url(#p213090bf3d)" style="fill: #808080"/>
   </g>
   <g id="patch_21">
    <path d="M 352.899344 244.761879 
L 560.82713 244.761879 
L 560.82713 232.355654 
L 352.899344 232.355654 
z
" clip-path="url(#p213090bf3d)" style="fill: #808080"/>
   </g>
   <g id="patch_22">
    <path d="M 352.899344 229.254098 
L 354.315494 229.254098 
L 354.315494 216.847874 
L 352.899344 216.847874 
z
" clip-path="url(#p213090bf3d)" style="fill: #4472c4"/>
   </g>
   <g id="patch_23">
    <path d="M 352.899344 213.746318 
L 504.968464 213.746318 
L 504.968464 201.340093 
L 352.899344 201.340093 
z
" clip-path="url(#p213090bf3d)" style="fill: #4472c4"/>
   </g>
   <g id="patch_24">
    <path d="M 352.899344 198.238537 
L 511.754222 198.238537 
L 511.754222 185.832313 
L 352.899344 185.832313 
z
" clip-path="url(#p213090bf3d)" style="fill: #4472c4"/>
   </g>
   <g id="patch_25">
    <path d="M 352.899344 182.730757 
L 552.160654 182.730757 
L 552.160654 170.324532 
L 352.899344 170.324532 
z
" clip-path="url(#p213090bf3d)" style="fill: #4472c4"/>
   </g>
   <g id="patch_26">
    <path d="M 352.899344 167.222976 
L 557.645029 167.222976 
L 557.645029 154.816752 
L 352.899344 154.816752 
z
" clip-path="url(#p213090bf3d)" style="fill: #4472c4"/>
   </g>
   <g id="patch_27">
    <path d="M 352.899344 151.715196 
L 554.881815 151.715196 
L 554.881815 139.308971 
L 352.899344 139.308971 
z
" clip-path="url(#p213090bf3d)" style="fill: #4472c4"/>
   </g>
   <g id="patch_28">
    <path d="M 352.899344 136.207415 
L 552.126431 136.207415 
L 552.126431 123.801191 
L 352.899344 123.801191 
z
" clip-path="url(#p213090bf3d)" style="fill: #4472c4"/>
   </g>
   <g id="patch_29">
    <path d="M 352.899344 120.699635 
L 559.766847 120.699635 
L 559.766847 108.29341 
L 352.899344 108.29341 
z
" clip-path="url(#p213090bf3d)" style="fill: #4472c4"/>
   </g>
   <g id="patch_30">
    <path d="M 352.899344 105.191854 
L 563.764101 105.191854 
L 563.764101 92.78563 
L 352.899344 92.78563 
z
" clip-path="url(#p213090bf3d)" style="fill: #4472c4"/>
   </g>
   <g id="patch_31">
    <path d="M 352.899344 89.684074 
L 361.697326 89.684074 
L 361.697326 77.277849 
L 352.899344 77.277849 
z
" clip-path="url(#p213090bf3d)" style="fill: #203864"/>
   </g>
   <g id="patch_32">
    <path d="M 352.899344 74.176293 
L 357.110252 74.176293 
L 357.110252 61.770069 
L 352.899344 61.770069 
z
" clip-path="url(#p213090bf3d)" style="fill: #203864"/>
   </g>
   <g id="patch_33">
    <path d="M 352.899344 58.668512 
L 358.879677 58.668512 
L 358.879677 46.262288 
L 352.899344 46.262288 
z
" clip-path="url(#p213090bf3d)" style="fill: #203864"/>
   </g>
   <g id="patch_34">
    <path d="M 352.899344 43.160732 
L 364.375873 43.160732 
L 364.375873 30.754508 
L 352.899344 30.754508 
z
" clip-path="url(#p213090bf3d)" style="fill: #203864"/>
   </g>
   <g id="matplotlib.axis_3">
    <g id="xtick_5">
     <g id="line2d_20">
      <g>
       <use xlink:href="#m381d2845ac" x="352.899344" y="271.745417" style="stroke: #000000; stroke-width: 0.8"/>
      </g>
     </g>
     <g id="text_22">
      <!-- 0 -->
      <g transform="translate(350.354344 284.824167) scale(0.08 -0.08)">
       <use xlink:href="#DejaVuSerif-30"/>
      </g>
     </g>
    </g>
    <g id="xtick_6">
     <g id="line2d_21">
      <g>
       <use xlink:href="#m381d2845ac" x="410.093657" y="271.745417" style="stroke: #000000; stroke-width: 0.8"/>
      </g>
     </g>
     <g id="text_23">
      <!-- 5 -->
      <g transform="translate(407.548657 284.824167) scale(0.08 -0.08)">
       <use xlink:href="#DejaVuSerif-35"/>
      </g>
     </g>
    </g>
    <g id="xtick_7">
     <g id="line2d_22">
      <g>
       <use xlink:href="#m381d2845ac" x="467.28797" y="271.745417" style="stroke: #000000; stroke-width: 0.8"/>
      </g>
     </g>
     <g id="text_24">
      <!-- 10 -->
      <g transform="translate(462.19797 284.824167) scale(0.08 -0.08)">
       <use xlink:href="#DejaVuSerif-31"/>
       <use xlink:href="#DejaVuSerif-30" x="63.623047"/>
      </g>
     </g>
    </g>
    <g id="xtick_8">
     <g id="line2d_23">
      <g>
       <use xlink:href="#m381d2845ac" x="524.482283" y="271.745417" style="stroke: #000000; stroke-width: 0.8"/>
      </g>
     </g>
     <g id="text_25">
      <!-- 15 -->
      <g transform="translate(519.392283 284.824167) scale(0.08 -0.08)">
       <use xlink:href="#DejaVuSerif-31"/>
       <use xlink:href="#DejaVuSerif-35" x="63.623047"/>
      </g>
     </g>
    </g>
    <g id="text_26">
     <!-- Adjusted mean bias $\hat{\delta}^'$ -->
     <g transform="translate(493.51951 305.872083) scale(0.08 -0.08)">
      <defs>
       <path id="DejaVuSerif-6a" d="M 641 4353 
Q 641 4497 745 4603 
Q 850 4709 997 4709 
Q 1141 4709 1245 4603 
Q 1350 4497 1350 4353 
Q 1350 4206 1248 4103 
Q 1147 4000 997 4000 
Q 850 4000 745 4103 
Q 641 4206 641 4353 
z
M 781 2988 
L 238 2988 
L 238 3322 
L 1356 3322 
L 1356 -325 
Q 1356 -838 1051 -1130 
Q 747 -1422 213 -1422 
Q -13 -1422 -217 -1370 
Q -422 -1319 -616 -1216 
L -616 -531 
L -319 -531 
Q -297 -831 -164 -972 
Q -31 -1113 225 -1113 
Q 509 -1113 645 -920 
Q 781 -728 781 -325 
L 781 2988 
z
" transform="scale(0.015625)"/>
       <path id="DejaVuSerif-75" d="M 2266 3322 
L 3341 3322 
L 3341 331 
L 3884 331 
L 3884 0 
L 2766 0 
L 2766 588 
Q 2606 256 2353 82 
Q 2100 -91 1766 -91 
Q 1213 -91 952 223 
Q 691 538 691 1209 
L 691 2988 
L 172 2988 
L 172 3322 
L 1269 3322 
L 1269 1388 
Q 1269 781 1417 556 
Q 1566 331 1947 331 
Q 2347 331 2556 625 
Q 2766 919 2766 1478 
L 2766 2988 
L 2266 2988 
L 2266 3322 
z
" transform="scale(0.015625)"/>
       <path id="DejaVuSans-27" d="M 1147 4666 
L 1147 2931 
L 616 2931 
L 616 4666 
L 1147 4666 
z
" transform="scale(0.015625)"/>
      </defs>
      <use xlink:href="#DejaVuSerif-41" transform="translate(0 0.296875)"/>
      <use xlink:href="#DejaVuSerif-64" transform="translate(72.216797 0.296875)"/>
      <use xlink:href="#DejaVuSerif-6a" transform="translate(136.230469 0.296875)"/>
      <use xlink:href="#DejaVuSerif-75" transform="translate(167.236328 0.296875)"/>
      <use xlink:href="#DejaVuSerif-73" transform="translate(231.640625 0.296875)"/>
      <use xlink:href="#DejaVuSerif-74" transform="translate(282.958984 0.296875)"/>
      <use xlink:href="#DejaVuSerif-65" transform="translate(323.144531 0.296875)"/>
      <use xlink:href="#DejaVuSerif-64" transform="translate(382.324219 0.296875)"/>
      <use xlink:href="#DejaVuSerif-20" transform="translate(446.337891 0.296875)"/>
      <use xlink:href="#DejaVuSerif-6d" transform="translate(478.125 0.296875)"/>
      <use xlink:href="#DejaVuSerif-65" transform="translate(572.949219 0.296875)"/>
      <use xlink:href="#DejaVuSerif-61" transform="translate(632.128906 0.296875)"/>
      <use xlink:href="#DejaVuSerif-6e" transform="translate(691.748047 0.296875)"/>
      <use xlink:href="#DejaVuSerif-20" transform="translate(756.152344 0.296875)"/>
      <use xlink:href="#DejaVuSerif-62" transform="translate(787.939453 0.296875)"/>
      <use xlink:href="#DejaVuSerif-69" transform="translate(851.953125 0.296875)"/>
      <use xlink:href="#DejaVuSerif-61" transform="translate(883.935547 0.296875)"/>
      <use xlink:href="#DejaVuSerif-73" transform="translate(943.554688 0.296875)"/>
      <use xlink:href="#DejaVuSerif-20" transform="translate(994.873047 0.296875)"/>
      <use xlink:href="#DejaVuSans-302" transform="translate(1089.533691 31.015625)"/>
      <use xlink:href="#DejaVuSans-Oblique-3b4" transform="translate(1026.660156 0.296875)"/>
      <use xlink:href="#DejaVuSans-27" transform="translate(1088.798828 38.578125) scale(0.7)"/>
     </g>
    </g>
   </g>
   <g id="matplotlib.axis_4">
    <g id="ytick_16">
     <g id="line2d_24"/>
     <g id="text_27">
      <!-- Random -->
      <g transform="translate(310.74125 257.105922) scale(0.08 -0.08)">
       <use xlink:href="#DejaVuSerif-52"/>
       <use xlink:href="#DejaVuSerif-61" x="77.542969"/>
       <use xlink:href="#DejaVuSerif-6e" x="137.162109"/>
       <use xlink:href="#DejaVuSerif-64" x="201.566406"/>
       <use xlink:href="#DejaVuSerif-6f" x="265.580078"/>
       <use xlink:href="#DejaVuSerif-6d" x="325.785156"/>
      </g>
     </g>
    </g>
    <g id="ytick_17">
     <g id="line2d_25"/>
     <g id="text_28">
      <!-- MostPop -->
      <g transform="translate(309.06375 241.598141) scale(0.08 -0.08)">
       <use xlink:href="#DejaVuSerif-4d"/>
       <use xlink:href="#DejaVuSerif-6f" x="102.392578"/>
       <use xlink:href="#DejaVuSerif-73" x="162.597656"/>
       <use xlink:href="#DejaVuSerif-74" x="213.916016"/>
       <use xlink:href="#DejaVuSerif-50" x="254.101562"/>
       <use xlink:href="#DejaVuSerif-6f" x="317.386719"/>
       <use xlink:href="#DejaVuSerif-70" x="377.591797"/>
      </g>
     </g>
    </g>
    <g id="ytick_18">
     <g id="line2d_26"/>
     <g id="text_29">
      <!-- CPR -->
      <g transform="translate(326.86375 226.090361) scale(0.08 -0.08)">
       <use xlink:href="#DejaVuSerif-43"/>
       <use xlink:href="#DejaVuSerif-50" x="76.513672"/>
       <use xlink:href="#DejaVuSerif-52" x="143.798828"/>
      </g>
     </g>
    </g>
    <g id="ytick_19">
     <g id="line2d_27"/>
     <g id="text_30">
      <!-- BISER -->
      <g transform="translate(318.00875 210.58258) scale(0.08 -0.08)">
       <use xlink:href="#DejaVuSerif-42"/>
       <use xlink:href="#DejaVuSerif-49" x="73.486328"/>
       <use xlink:href="#DejaVuSerif-53" x="112.988281"/>
       <use xlink:href="#DejaVuSerif-45" x="181.494141"/>
       <use xlink:href="#DejaVuSerif-52" x="254.492188"/>
      </g>
     </g>
    </g>
    <g id="ytick_20">
     <g id="line2d_28"/>
     <g id="text_31">
      <!-- MACR -->
      <g transform="translate(318.2775 195.0748) scale(0.08 -0.08)">
       <use xlink:href="#DejaVuSerif-4d"/>
       <use xlink:href="#DejaVuSerif-41" x="102.392578"/>
       <use xlink:href="#DejaVuSerif-43" x="174.609375"/>
       <use xlink:href="#DejaVuSerif-52" x="251.123047"/>
      </g>
     </g>
    </g>
    <g id="ytick_21">
     <g id="line2d_29"/>
     <g id="text_32">
      <!-- PD -->
      <g transform="translate(332.595 179.567019) scale(0.08 -0.08)">
       <use xlink:href="#DejaVuSerif-50"/>
       <use xlink:href="#DejaVuSerif-44" x="67.285156"/>
      </g>
     </g>
    </g>
    <g id="ytick_22">
     <g id="line2d_30"/>
     <g id="text_33">
      <!-- RelMF -->
      <g transform="translate(317.33125 164.059239) scale(0.08 -0.08)">
       <use xlink:href="#DejaVuSerif-52"/>
       <use xlink:href="#DejaVuSerif-65" x="75.292969"/>
       <use xlink:href="#DejaVuSerif-6c" x="134.472656"/>
       <use xlink:href="#DejaVuSerif-4d" x="166.455078"/>
       <use xlink:href="#DejaVuSerif-46" x="268.847656"/>
      </g>
     </g>
    </g>
    <g id="ytick_23">
     <g id="line2d_31"/>
     <g id="text_34">
      <!-- UBPR -->
      <g transform="translate(320.36375 148.551458) scale(0.08 -0.08)">
       <use xlink:href="#DejaVuSerif-55"/>
       <use xlink:href="#DejaVuSerif-42" x="84.277344"/>
       <use xlink:href="#DejaVuSerif-50" x="157.763672"/>
       <use xlink:href="#DejaVuSerif-52" x="225.048828"/>
      </g>
     </g>
    </g>
    <g id="ytick_24">
     <g id="line2d_32"/>
     <g id="text_35">
      <!-- BPR -->
      <g transform="translate(327.10625 133.043678) scale(0.08 -0.08)">
       <use xlink:href="#DejaVuSerif-42"/>
       <use xlink:href="#DejaVuSerif-50" x="73.486328"/>
       <use xlink:href="#DejaVuSerif-52" x="140.771484"/>
      </g>
     </g>
    </g>
    <g id="ytick_25">
     <g id="line2d_33"/>
     <g id="text_36">
      <!-- BCE -->
      <g transform="translate(326.40125 117.535897) scale(0.08 -0.08)">
       <use xlink:href="#DejaVuSerif-42"/>
       <use xlink:href="#DejaVuSerif-43" x="75.361328"/>
       <use xlink:href="#DejaVuSerif-45" x="151.875"/>
      </g>
     </g>
    </g>
    <g id="ytick_26">
     <g id="line2d_34"/>
     <g id="text_37">
      <!-- KNN -->
      <g transform="translate(324.415 102.028117) scale(0.08 -0.08)">
       <use xlink:href="#DejaVuSerif-4b"/>
       <use xlink:href="#DejaVuSerif-4e" x="74.707031"/>
       <use xlink:href="#DejaVuSerif-4e" x="162.207031"/>
      </g>
     </g>
    </g>
    <g id="ytick_27">
     <g id="line2d_35"/>
     <g id="text_38">
      <!-- BL -->
      <g transform="translate(332.005 86.520336) scale(0.08 -0.08)">
       <use xlink:href="#DejaVuSerif-Bold-42"/>
       <use xlink:href="#DejaVuSerif-Bold-4c" x="84.521484"/>
      </g>
     </g>
    </g>
    <g id="ytick_28">
     <g id="line2d_36"/>
     <g id="text_39">
      <!-- ENL -->
      <g transform="translate(325.35625 71.012556) scale(0.08 -0.08)">
       <use xlink:href="#DejaVuSerif-Bold-45"/>
       <use xlink:href="#DejaVuSerif-Bold-4e" x="76.220703"/>
       <use xlink:href="#DejaVuSerif-Bold-4c" x="167.626953"/>
      </g>
     </g>
    </g>
    <g id="ytick_29">
     <g id="line2d_37"/>
     <g id="text_40">
      <!-- GEV -->
      <g transform="translate(325.25375 55.504775) scale(0.08 -0.08)">
       <use xlink:href="#DejaVuSerif-Bold-47"/>
       <use xlink:href="#DejaVuSerif-Bold-45" x="85.400391"/>
       <use xlink:href="#DejaVuSerif-Bold-56" x="161.621094"/>
      </g>
     </g>
    </g>
    <g id="ytick_30">
     <g id="line2d_38"/>
     <g id="text_41">
      <!-- MNL -->
      <g transform="translate(322.59875 39.996995) scale(0.08 -0.08)">
       <use xlink:href="#DejaVuSerif-Bold-4d"/>
       <use xlink:href="#DejaVuSerif-Bold-4e" x="110.693359"/>
       <use xlink:href="#DejaVuSerif-Bold-4c" x="202.099609"/>
      </g>
     </g>
    </g>
   </g>
   <g id="patch_35">
    <path d="M 347.89125 271.745417 
L 575.19125 271.745417 
" style="fill: none; stroke: #000000; stroke-width: 0.8; stroke-linejoin: miter; stroke-linecap: square"/>
   </g>
   <g id="text_42">
    <!-- Exposure bias through over-exposure (adjusted) -->
    <g transform="translate(353.4725 13.27875) scale(0.08 -0.08)">
     <defs>
      <path id="DejaVuSerif-Bold-28" d="M 2694 -997 
Q 1641 -606 1122 122 
Q 603 850 603 1931 
Q 603 3013 1115 3731 
Q 1628 4450 2694 4863 
L 2694 4488 
Q 2200 4188 1983 3598 
Q 1766 3009 1766 1931 
Q 1766 856 1983 267 
Q 2200 -322 2694 -622 
L 2694 -997 
z
" transform="scale(0.015625)"/>
      <path id="DejaVuSerif-Bold-64" d="M 2747 1497 
L 2747 1825 
Q 2747 2406 2597 2665 
Q 2447 2925 2119 2925 
Q 1775 2925 1636 2651 
Q 1497 2378 1497 1663 
Q 1497 947 1637 672 
Q 1778 397 2119 397 
Q 2447 397 2597 656 
Q 2747 916 2747 1497 
z
M 3853 378 
L 4325 378 
L 4325 0 
L 2747 0 
L 2747 422 
Q 2606 163 2367 36 
Q 2128 -91 1778 -91 
Q 1072 -91 667 378 
Q 263 847 263 1663 
Q 263 2481 667 2947 
Q 1072 3413 1778 3413 
Q 2128 3413 2367 3286 
Q 2606 3159 2747 2900 
L 2747 4488 
L 2272 4488 
L 2272 4863 
L 3853 4863 
L 3853 378 
z
" transform="scale(0.015625)"/>
      <path id="DejaVuSerif-Bold-6a" d="M 556 4263 
Q 556 4516 729 4689 
Q 903 4863 1159 4863 
Q 1403 4863 1578 4688 
Q 1753 4513 1753 4263 
Q 1753 4016 1579 3842 
Q 1406 3669 1159 3669 
Q 906 3669 731 3841 
Q 556 4013 556 4263 
z
M 684 2944 
L 213 2944 
L 213 3322 
L 1791 3322 
L 1791 -391 
Q 1791 -900 1430 -1161 
Q 1069 -1422 366 -1422 
Q 178 -1422 -34 -1390 
Q -247 -1359 -475 -1300 
L -475 -594 
L -122 -597 
Q -116 -847 -23 -958 
Q 69 -1069 275 -1069 
Q 503 -1069 593 -922 
Q 684 -775 684 -391 
L 684 2944 
z
" transform="scale(0.015625)"/>
      <path id="DejaVuSerif-Bold-29" d="M 325 -997 
L 325 -622 
Q 819 -322 1036 267 
Q 1253 856 1253 1931 
Q 1253 3009 1036 3598 
Q 819 4188 325 4488 
L 325 4863 
Q 1391 4450 1905 3731 
Q 2419 3013 2419 1931 
Q 2419 850 1898 122 
Q 1378 -606 325 -997 
z
" transform="scale(0.015625)"/>
     </defs>
     <use xlink:href="#DejaVuSerif-Bold-45"/>
     <use xlink:href="#DejaVuSerif-Bold-78" x="76.220703"/>
     <use xlink:href="#DejaVuSerif-Bold-70" x="135.839844"/>
     <use xlink:href="#DejaVuSerif-Bold-6f" x="205.761719"/>
     <use xlink:href="#DejaVuSerif-Bold-73" x="272.460938"/>
     <use xlink:href="#DejaVuSerif-Bold-75" x="328.759766"/>
     <use xlink:href="#DejaVuSerif-Bold-72" x="401.464844"/>
     <use xlink:href="#DejaVuSerif-Bold-65" x="454.150391"/>
     <use xlink:href="#DejaVuSerif-Bold-20" x="517.773438"/>
     <use xlink:href="#DejaVuSerif-Bold-62" x="552.587891"/>
     <use xlink:href="#DejaVuSerif-Bold-69" x="622.509766"/>
     <use xlink:href="#DejaVuSerif-Bold-61" x="660.498047"/>
     <use xlink:href="#DejaVuSerif-Bold-73" x="725.292969"/>
     <use xlink:href="#DejaVuSerif-Bold-20" x="781.591797"/>
     <use xlink:href="#DejaVuSerif-Bold-74" x="816.40625"/>
     <use xlink:href="#DejaVuSerif-Bold-68" x="862.597656"/>
     <use xlink:href="#DejaVuSerif-Bold-72" x="935.302734"/>
     <use xlink:href="#DejaVuSerif-Bold-6f" x="987.988281"/>
     <use xlink:href="#DejaVuSerif-Bold-75" x="1054.6875"/>
     <use xlink:href="#DejaVuSerif-Bold-67" x="1127.392578"/>
     <use xlink:href="#DejaVuSerif-Bold-68" x="1197.314453"/>
     <use xlink:href="#DejaVuSerif-Bold-20" x="1270.019531"/>
     <use xlink:href="#DejaVuSerif-Bold-6f" x="1304.833984"/>
     <use xlink:href="#DejaVuSerif-Bold-76" x="1371.533203"/>
     <use xlink:href="#DejaVuSerif-Bold-65" x="1429.638672"/>
     <use xlink:href="#DejaVuSerif-Bold-72" x="1493.261719"/>
     <use xlink:href="#DejaVuSerif-Bold-2d" x="1545.947266"/>
     <use xlink:href="#DejaVuSerif-Bold-65" x="1587.451172"/>
     <use xlink:href="#DejaVuSerif-Bold-78" x="1651.074219"/>
     <use xlink:href="#DejaVuSerif-Bold-70" x="1710.693359"/>
     <use xlink:href="#DejaVuSerif-Bold-6f" x="1780.615234"/>
     <use xlink:href="#DejaVuSerif-Bold-73" x="1847.314453"/>
     <use xlink:href="#DejaVuSerif-Bold-75" x="1903.613281"/>
     <use xlink:href="#DejaVuSerif-Bold-72" x="1976.318359"/>
     <use xlink:href="#DejaVuSerif-Bold-65" x="2029.003906"/>
     <use xlink:href="#DejaVuSerif-Bold-20" x="2092.626953"/>
     <use xlink:href="#DejaVuSerif-Bold-28" x="2127.441406"/>
     <use xlink:href="#DejaVuSerif-Bold-61" x="2174.755859"/>
     <use xlink:href="#DejaVuSerif-Bold-64" x="2239.550781"/>
     <use xlink:href="#DejaVuSerif-Bold-6a" x="2309.472656"/>
     <use xlink:href="#DejaVuSerif-Bold-75" x="2345.654297"/>
     <use xlink:href="#DejaVuSerif-Bold-73" x="2418.359375"/>
     <use xlink:href="#DejaVuSerif-Bold-74" x="2474.658203"/>
     <use xlink:href="#DejaVuSerif-Bold-65" x="2520.849609"/>
     <use xlink:href="#DejaVuSerif-Bold-64" x="2584.472656"/>
     <use xlink:href="#DejaVuSerif-Bold-29" x="2654.394531"/>
    </g>
   </g>
  </g>
  <g id="text_43">
   <!-- Discrete choice -->
   <g transform="translate(13.27875 91.823037) rotate(-90) scale(0.08 -0.08)">
    <defs>
     <path id="DejaVuSerif-Bold-44" d="M 2100 378 
L 2534 378 
Q 3266 378 3605 847 
Q 3944 1316 3944 2338 
Q 3944 3353 3606 3820 
Q 3269 4288 2534 4288 
L 2100 4288 
L 2100 378 
z
M 300 0 
L 300 378 
L 897 378 
L 897 4288 
L 300 4288 
L 300 4666 
L 2694 4666 
Q 3950 4666 4615 4066 
Q 5281 3466 5281 2338 
Q 5281 1203 4614 601 
Q 3947 0 2694 0 
L 300 0 
z
" transform="scale(0.015625)"/>
     <path id="DejaVuSerif-Bold-63" d="M 3609 1038 
Q 3491 469 3123 189 
Q 2756 -91 2125 -91 
Q 1238 -91 750 368 
Q 263 828 263 1663 
Q 263 2488 744 2950 
Q 1225 3413 2081 3413 
Q 2428 3413 2781 3347 
Q 3134 3281 3500 3150 
L 3500 2228 
L 3150 2228 
Q 3100 2650 2903 2854 
Q 2706 3059 2350 3059 
Q 1888 3059 1692 2746 
Q 1497 2434 1497 1663 
Q 1497 909 1687 586 
Q 1878 263 2309 263 
Q 2644 263 2845 463 
Q 3047 663 3091 1038 
L 3609 1038 
z
" transform="scale(0.015625)"/>
    </defs>
    <use xlink:href="#DejaVuSerif-Bold-44"/>
    <use xlink:href="#DejaVuSerif-Bold-69" x="86.71875"/>
    <use xlink:href="#DejaVuSerif-Bold-73" x="124.707031"/>
    <use xlink:href="#DejaVuSerif-Bold-63" x="181.005859"/>
    <use xlink:href="#DejaVuSerif-Bold-72" x="241.894531"/>
    <use xlink:href="#DejaVuSerif-Bold-65" x="294.580078"/>
    <use xlink:href="#DejaVuSerif-Bold-74" x="358.203125"/>
    <use xlink:href="#DejaVuSerif-Bold-65" x="404.394531"/>
    <use xlink:href="#DejaVuSerif-Bold-20" x="468.017578"/>
    <use xlink:href="#DejaVuSerif-Bold-63" x="502.832031"/>
    <use xlink:href="#DejaVuSerif-Bold-68" x="563.720703"/>
    <use xlink:href="#DejaVuSerif-Bold-6f" x="636.425781"/>
    <use xlink:href="#DejaVuSerif-Bold-69" x="703.125"/>
    <use xlink:href="#DejaVuSerif-Bold-63" x="741.113281"/>
    <use xlink:href="#DejaVuSerif-Bold-65" x="802.001953"/>
   </g>
  </g>
  <g id="text_44">
   <!-- Binary rating matrix -->
   <g transform="translate(13.165 203.269051) rotate(-90) scale(0.08 -0.08)">
    <defs>
     <path id="DejaVuSerif-72" d="M 3059 3328 
L 3059 2497 
L 2728 2497 
Q 2713 2744 2591 2866 
Q 2469 2988 2234 2988 
Q 1809 2988 1582 2694 
Q 1356 2400 1356 1850 
L 1356 331 
L 2022 331 
L 2022 0 
L 263 0 
L 263 331 
L 781 331 
L 781 2994 
L 231 2994 
L 231 3322 
L 1356 3322 
L 1356 2731 
Q 1525 3078 1790 3245 
Q 2056 3413 2438 3413 
Q 2578 3413 2733 3391 
Q 2888 3369 3059 3328 
z
" transform="scale(0.015625)"/>
     <path id="DejaVuSerif-79" d="M 1381 -609 
L 1600 -56 
L 359 2988 
L -19 2988 
L -19 3322 
L 1509 3322 
L 1509 2988 
L 978 2988 
L 1913 703 
L 2847 2988 
L 2350 2988 
L 2350 3322 
L 3597 3322 
L 3597 2988 
L 3225 2988 
L 1703 -750 
Q 1547 -1138 1356 -1280 
Q 1166 -1422 819 -1422 
Q 672 -1422 517 -1397 
Q 363 -1372 206 -1325 
L 206 -691 
L 500 -691 
Q 519 -903 608 -995 
Q 697 -1088 884 -1088 
Q 1056 -1088 1161 -992 
Q 1266 -897 1381 -609 
z
" transform="scale(0.015625)"/>
     <path id="DejaVuSerif-67" d="M 3359 2988 
L 3359 72 
Q 3359 -644 2965 -1033 
Q 2572 -1422 1844 -1422 
Q 1516 -1422 1216 -1362 
Q 916 -1303 641 -1184 
L 641 -488 
L 941 -488 
Q 997 -813 1206 -963 
Q 1416 -1113 1806 -1113 
Q 2313 -1113 2548 -827 
Q 2784 -541 2784 72 
L 2784 519 
Q 2616 206 2355 57 
Q 2094 -91 1709 -91 
Q 1097 -91 708 395 
Q 319 881 319 1663 
Q 319 2444 706 2928 
Q 1094 3413 1709 3413 
Q 2094 3413 2355 3264 
Q 2616 3116 2784 2803 
L 2784 3322 
L 3909 3322 
L 3909 2988 
L 3359 2988 
z
M 2784 1825 
Q 2784 2422 2554 2737 
Q 2325 3053 1888 3053 
Q 1444 3053 1217 2703 
Q 991 2353 991 1663 
Q 991 975 1217 622 
Q 1444 269 1888 269 
Q 2325 269 2554 583 
Q 2784 897 2784 1497 
L 2784 1825 
z
" transform="scale(0.015625)"/>
     <path id="DejaVuSerif-78" d="M 1863 2028 
L 2559 2988 
L 2113 2988 
L 2113 3322 
L 3391 3322 
L 3391 2988 
L 2950 2988 
L 2059 1759 
L 3097 331 
L 3531 331 
L 3531 0 
L 1997 0 
L 1997 331 
L 2419 331 
L 1697 1325 
L 972 331 
L 1403 331 
L 1403 0 
L 141 0 
L 141 331 
L 581 331 
L 1497 1594 
L 488 2988 
L 78 2988 
L 78 3322 
L 1563 3322 
L 1563 2988 
L 1166 2988 
L 1863 2028 
z
" transform="scale(0.015625)"/>
    </defs>
    <use xlink:href="#DejaVuSerif-42"/>
    <use xlink:href="#DejaVuSerif-69" x="73.486328"/>
    <use xlink:href="#DejaVuSerif-6e" x="105.46875"/>
    <use xlink:href="#DejaVuSerif-61" x="169.873047"/>
    <use xlink:href="#DejaVuSerif-72" x="229.492188"/>
    <use xlink:href="#DejaVuSerif-79" x="277.294922"/>
    <use xlink:href="#DejaVuSerif-20" x="333.789062"/>
    <use xlink:href="#DejaVuSerif-72" x="365.576172"/>
    <use xlink:href="#DejaVuSerif-61" x="413.378906"/>
    <use xlink:href="#DejaVuSerif-74" x="472.998047"/>
    <use xlink:href="#DejaVuSerif-69" x="513.183594"/>
    <use xlink:href="#DejaVuSerif-6e" x="545.166016"/>
    <use xlink:href="#DejaVuSerif-67" x="609.570312"/>
    <use xlink:href="#DejaVuSerif-20" x="673.583984"/>
    <use xlink:href="#DejaVuSerif-6d" x="705.371094"/>
    <use xlink:href="#DejaVuSerif-61" x="800.195312"/>
    <use xlink:href="#DejaVuSerif-74" x="859.814453"/>
    <use xlink:href="#DejaVuSerif-72" x="900"/>
    <use xlink:href="#DejaVuSerif-69" x="947.802734"/>
    <use xlink:href="#DejaVuSerif-78" x="979.785156"/>
   </g>
  </g>
 </g>
 <defs>
  <clipPath id="p42424307c9">
   <rect x="64.64125" y="19.27875" width="227.3" height="252.466667"/>
  </clipPath>
  <clipPath id="p213090bf3d">
   <rect x="347.89125" y="19.27875" width="227.3" height="252.466667"/>
  </clipPath>
 </defs>
</svg>
